:version 1.10
:name ASF
:units
  mass 1
  length 1
  angle deg
:documentation
  ASF file generated by Kaydara
:root
  axis xyz
  order  tx ty tz rx ry rz
  position 0 0 0
  orientation 0 0 0
:bonedata
  begin
    id 1
    name SpineDummy
    direction 0.999998 -0.00179978 1.38929e-006
    length 3.60008
    axis 0 0 0 xyz
  end
  begin
    id 2
    name Spine
    direction 0.964365 0.262802 0.0305839
    length 8.13928
    axis 1.33928 -1.75354 15.2838 xyz
    dof rx ry rz
  end
  begin
    id 3
    name Spine1
    direction 0.811168 0.572065 0.12144
    length 7.14954
    axis 2.2224 -6.9761 35.2157 xyz
    dof rx ry rz
  end
  begin
    id 4
    name Neck
    direction 0 0 0
    length 0
    axis 2.2224 -6.9761 35.2157 xyz
    dof rx ry rz
  end
  begin
    id 5
    name HeadDummy
    direction 0.810939 0.572387 0.121455
    length 3.55534
    axis 2.2224 -6.9761 35.2157 xyz
  end
  begin
    id 6
    name Head
    direction 0.998226 -0.000232542 0.0595419
    length 7.35666
    axis -3.03688 -3.41352 -0.0133467 xyz
    dof rx ry rz
  end
  begin
    id 7
    name R_ClavicleDummy
    direction 0.531669 -0.194489 -0.824319
    length 2.49392
    axis 2.2224 -6.9761 35.2157 xyz
  end
  begin
    id 8
    name R_Clavicle
    direction -0.155119 0.0480802 -0.986725
    length 4.485
    axis -54.2764 80.6538 162.779 xyz
    dof rx ry rz
  end
  begin
    id 9
    name R_UpperArm
    direction -0.955567 0.200068 -0.216484
    length 10.1122
    axis -72.9943 12.5026 168.175 xyz
    dof rx ry rz
  end
  begin
    id 10
    name R_Forearm
    direction -0.61433 0.385743 0.688332
    length 9.39148
    axis -117.015 -43.4982 147.875 xyz
    dof rx ry rz
  end
  begin
    id 11
    name R_Hand
    direction -0.699429 0.0170333 0.714499
    length 3.66324
    axis -45.0303 -36.7097 175.478 xyz
    dof rx ry rz
  end
  begin
    id 12
    name L_ClavicleDummy
    direction 0.40287 -0.36502 0.839319
    length 2.49392
    axis 2.2224 -6.9761 35.2157 xyz
  end
  begin
    id 13
    name L_Clavicle
    direction -0.231271 -0.0726419 0.970174
    length 4.485
    axis 18.4357 -75.9711 -162.563 xyz
    dof rx ry rz
  end
  begin
    id 14
    name L_UpperArm
    direction -0.917494 0.144359 0.370629
    length 10.1122
    axis 56.0417 -21.7544 171.058 xyz
    dof rx ry rz
  end
  begin
    id 15
    name L_Forearm
    direction -0.496786 0.615074 -0.612281
    length 9.39148
    axis 89.8094 37.7546 128.927 xyz
    dof rx ry rz
  end
  begin
    id 16
    name L_Hand
    direction -0.409932 0.64962 -0.640274
    length 3.66324
    axis -0.424369 32.133 128.52 xyz
    dof rx ry rz
  end
  begin
    id 17
    name L_ThighDummy
    direction -1.84081e-006 1.87549e-006 1
    length 3.13049
    axis 0 0 0 xyz
  end
  begin
    id 18
    name L_Thigh
    direction -0.947739 0.307978 0.083308
    length 17.9961
    axis 173.219 -4.77873 161.998 xyz
    dof rx ry rz
  end
  begin
    id 19
    name L_Calf
    direction -0.728814 -0.684427 0.0197583
    length 13.3367
    axis 167.331 -1.13214 -136.799 xyz
    dof rx ry rz
  end
  begin
    id 20
    name L_Foot
    direction -0.9028 0.418719 0.0981191
    length 5.8674
    axis 163.436 11.5135 -155.37 xyz
    dof rx ry rz
  end
  begin
    id 21
    name L_Toe0
    direction -0.35341 0.886259 0.299411
    length 4.75286
    axis 169.316 -17.4222 111.74 xyz
    dof rx ry rz
  end
  begin
    id 22
    name R_ThighDummy
    direction 9.32778e-007 -8.82053e-007 -1
    length 3.13049
    axis 0 0 0 xyz
  end
  begin
    id 23
    name R_Thigh
    direction -0.925064 0.37528 -0.0585023
    length 17.9961
    axis -178.698 3.35385 157.919 xyz
    dof rx ry rz
  end
  begin
    id 24
    name R_Calf
    direction -0.68969 -0.718776 -0.0876886
    length 13.3367
    axis -160.504 5.03065 -133.817 xyz
    dof rx ry rz
  end
  begin
    id 25
    name R_Foot
    direction -0.857405 0.418858 -0.299022
    length 5.8674
    axis -161.328 4.38911 -154.413 xyz
    dof rx ry rz
  end
  begin
    id 26
    name R_Toe0
    direction -0.100745 0.952789 -0.286433
    length 4.75286
    axis 171.683 16.6445 96.0359 xyz
    dof rx ry rz
  end
:hierarchy
  begin
    root SpineDummy L_ThighDummy R_ThighDummy
    SpineDummy Spine
    Spine Spine1
    Spine1 Neck
    Neck HeadDummy R_ClavicleDummy L_ClavicleDummy
    HeadDummy Head
    R_ClavicleDummy R_Clavicle
    R_Clavicle R_UpperArm
    R_UpperArm R_Forearm
    R_Forearm R_Hand
    L_ClavicleDummy L_Clavicle
    L_Clavicle L_UpperArm
    L_UpperArm L_Forearm
    L_Forearm L_Hand
    L_ThighDummy L_Thigh
    L_Thigh L_Calf
    L_Calf L_Foot
    L_Foot L_Toe0
    R_ThighDummy R_Thigh
    R_Thigh R_Calf
    R_Calf R_Foot
    R_Foot R_Toe0
  end

:SAMPLES-PER-SECOND 30
:FULLY-SPECIFIED
:DEGREES
223
root  0.60893 32.6384 33.0863 -84.7833 -7.95327 87.1384
Spine  -0.480574 7.39639 -14.4914
Spine1  0.299787 2.18312 9.1756
Neck  3.97569e-016 0 -2.38542e-015
Head  4.34621 -8.56908 25.7869
R_Clavicle  0.394966 -14.6822 1.75116
R_UpperArm  6.62518 5.59276 8.27367
R_Forearm  24.2683 -21.7031 18.9223
R_Hand  -1.18431 8.71806 -20.3634
L_Clavicle  -0.653888 19.3302 -3.36727
L_UpperArm  -19.4554 15.7976 25.9049
L_Forearm  18.3888 39.0692 41.7367
L_Hand  0.06134 -1.66794 1.61961
L_Thigh  -1.91356 2.44106 -0.463239
L_Calf  1.59999 -0.989679 6.84427
L_Foot  0.683596 4.98462 -2.22086
L_Toe0  0.505131 0.0351127 -6.13611
R_Thigh  1.28798 2.79394 -22.1011
R_Calf  2.99554 7.50085 24.2198
R_Foot  -0.664754 -0.053131 5.55235
R_Toe0  0.529015 -0.297859 -10.0604
224
root  0.656993 32.9421 32.137 -84.3542 -6.87961 87.1553
Spine  0.851707 9.56159 -14.8176
Spine1  1.1288 -1.60107 7.61996
Neck  3.97569e-016 0 -2.38542e-015
Head  1.08312 -7.21933 26.8897
R_Clavicle  0.364801 -13.9948 1.38489
R_UpperArm  9.79012 6.03991 7.91857
R_Forearm  22.7275 -27.0164 20.5726
R_Hand  -1.24255 8.96858 -20.793
L_Clavicle  -0.651413 19.5061 -2.96053
L_UpperArm  -18.8759 16.0166 27.8032
L_Forearm  15.6333 38.0236 41.1818
L_Hand  0.0655923 -1.07609 1.56241
L_Thigh  -4.98568 1.80847 0.22884
L_Calf  5.29053 -2.56886 19.0524
L_Foot  0.139855 4.68919 -4.22809
L_Toe0  0.505121 0.0353943 -6.13612
R_Thigh  2.14702 2.55068 -24.1014
R_Calf  2.3015 8.47259 27.6026
R_Foot  -0.558581 -0.524853 3.37282
R_Toe0  0.220142 -0.231135 -7.65652
225
root  0.693646 33.1175 31.21 -83.9108 -6.15301 87.4586
Spine  2.07472 11.8247 -14.2208
Spine1  1.85789 -5.19146 6.05012
Neck  3.97569e-016 0 -2.38542e-015
Head  -1.65653 -6.15946 27.0937
R_Clavicle  0.344474 -13.4252 1.18192
R_UpperArm  19.9729 6.59963 7.79936
R_Forearm  14.2104 -33.9746 20.435
R_Hand  -1.14717 9.08902 -20.1111
L_Clavicle  -0.635666 19.3413 -2.75371
L_UpperArm  -17.4481 16.329 29.5568
L_Forearm  12.1863 36.273 40.132
L_Hand  0.0672571 -0.257226 1.41876
L_Thigh  -7.25697 1.38372 0.434656
L_Calf  8.03478 -4.37672 30.6651
L_Foot  -0.620796 2.43098 -5.50872
L_Toe0  0.50511 0.0356922 -6.13612
R_Thigh  2.90071 2.75268 -26.5049
R_Calf  2.29107 9.43586 31.0723
R_Foot  -0.574555 -1.08634 2.06716
R_Toe0  0.2398 -0.215719 -6.54598
226
root  0.706863 33.082 30.2569 -83.4503 -5.88152 88.171
Spine  3.1395 14.086 -13.1453
Spine1  2.50548 -8.22865 4.91852
Neck  3.97569e-016 0 -2.38542e-015
Head  -3.91493 -5.43197 26.3362
R_Clavicle  0.355061 -13.0135 1.34955
R_UpperArm  27.3994 7.42439 7.68363
R_Forearm  6.11825 -39.2899 21.6626
R_Hand  -0.975801 8.94668 -18.8547
L_Clavicle  -0.615034 18.943 -2.80387
L_UpperArm  -15.4314 16.5381 30.9037
L_Forearm  8.65341 34.2127 38.9807
L_Hand  0.0660955 0.294752 1.29815
L_Thigh  -5.10754 1.14939 0.993431
L_Calf  5.69938 -7.1982 38.2752
L_Foot  -0.748324 0.908992 -4.7532
L_Toe0  0.5051 0.0359914 -6.13613
R_Thigh  3.62645 3.42656 -29.3196
R_Calf  2.25813 10.2737 34.2135
R_Foot  -0.531738 -0.985058 1.98255
R_Toe0  -0.199281 -0.121287 -6.07238
227
root  0.672321 32.8432 29.2762 -82.8535 -5.68072 88.8227
Spine  3.91458 15.2386 -12.4327
Spine1  3.04497 -9.96527 4.59416
Neck  3.97569e-016 0 -2.38542e-015
Head  -5.60777 -4.91902 24.5553
R_Clavicle  0.373403 -12.7677 1.5819
R_UpperArm  30.2865 8.67077 7.64377
R_Forearm  1.48394 -42.706 23.3029
R_Hand  -0.853736 9.09991 -17.9946
L_Clavicle  -0.600302 18.6941 -2.76794
L_UpperArm  -13.6624 16.1167 31.2577
L_Forearm  5.79169 32.5775 38.1344
L_Hand  0.0575563 0.319316 1.13029
L_Thigh  -1.50481 0.194646 3.07953
L_Calf  1.757 -8.29938 38.5399
L_Foot  0.425469 5.8845 -3.96649
L_Toe0  0.50509 0.0362768 -6.13613
R_Thigh  4.11512 4.11682 -31.9174
R_Calf  2.2469 10.8011 36.2586
R_Foot  -0.5275 -0.450818 3.30869
R_Toe0  -0.698101 -0.0271754 -6.25515
228
root  0.569409 32.4728 28.2878 -81.958 -5.41744 88.7906
Spine  4.36414 14.5027 -11.9959
Spine1  3.43444 -10.2549 5.07182
Neck  3.97569e-016 0 -2.38542e-015
Head  -6.84651 -4.4127 21.7328
R_Clavicle  0.373707 -12.8914 1.57843
R_UpperArm  30.6243 10.1368 8.11938
R_Forearm  -0.0378905 -44.3345 24.2646
R_Hand  -0.788465 9.91211 -17.6954
L_Clavicle  -0.599799 18.8424 -2.43258
L_UpperArm  -12.4681 14.4612 30.0054
L_Forearm  3.84783 31.7007 37.6374
L_Hand  0.0502599 -0.109722 1.03489
L_Thigh  -2.10013 -1.53231 4.49276
L_Calf  2.7938 -6.51184 35.8824
L_Foot  0.692664 11.7007 -7.22307
L_Toe0  0.505082 0.0365334 -6.13614
R_Thigh  4.14538 4.31322 -33.7408
R_Calf  2.75698 10.7626 36.1027
R_Foot  -0.586676 0.19299 5.60409
R_Toe0  -0.552078 -0.0664687 -6.57956
229
root  0.392752 32.0289 27.2557 -80.9035 -5.41673 88.0595
Spine  4.68413 12.7142 -11.0404
Spine1  3.70242 -10.1302 6.13425
Neck  3.97569e-016 0 -2.38542e-015
Head  -7.90683 -3.70401 18.2095
R_Clavicle  0.362394 -13.3899 1.40652
R_UpperArm  31.2388 10.9079 9.42666
R_Forearm  0.351872 -44.1194 24.4833
R_Hand  -0.767002 10.8349 -17.7298
L_Clavicle  -0.607901 19.1873 -2.09996
L_UpperArm  -11.2934 11.5283 27.1438
L_Forearm  2.38662 31.2647 37.2937
L_Hand  0.0413237 -0.846791 0.928316
L_Thigh  -2.81856 -3.4228 5.59279
L_Calf  5.73983 -3.93249 30.2243
L_Foot  0.286503 13.641 -9.65916
L_Toe0  0.505075 0.0367463 -6.13615
R_Thigh  4.16016 3.95442 -34.8294
R_Calf  3.17014 10.0216 33.2219
R_Foot  -0.449604 1.23394 7.67741
R_Toe0  -0.0641981 -0.135816 -5.14223
230
root  0.156407 31.6165 26.1881 -80.0699 -5.65319 86.7554
Spine  4.98589 10.6587 -9.46662
Spine1  3.84179 -10.5169 7.43508
Neck  3.97569e-016 0 -2.38542e-015
Head  -8.75184 -2.8662 15.0866
R_Clavicle  0.348761 -13.9051 1.18268
R_UpperArm  33.0234 9.98784 11.3373
R_Forearm  2.47496 -42.8761 24.4227
R_Hand  -0.823874 11.0928 -18.1372
L_Clavicle  -0.613353 19.2481 -2.17975
L_UpperArm  -9.4784 8.39922 23.5737
L_Forearm  0.540001 30.5042 36.8366
L_Hand  0.0190054 -1.69758 0.40812
L_Thigh  -1.42288 -4.97783 6.35051
L_Calf  6.42252 -3.10427 23.1215
L_Foot  0.968062 12.184 -6.56144
L_Toe0  0.505071 0.0369003 -6.13614
R_Thigh  4.9822 2.73935 -34.7334
R_Calf  1.81929 8.454 27.421
R_Foot  0.490477 3.83094 7.60788
R_Toe0  -0.710185 0.280219 0.0831303
231
root  -0.118133 31.3447 25.1553 -79.5683 -5.62241 84.903
Spine  5.03425 7.79751 -8.07457
Spine1  3.76222 -10.8221 8.46436
Neck  3.97569e-016 0 -2.38542e-015
Head  -8.53948 -2.16797 13.421
R_Clavicle  0.328199 -14.2993 0.852975
R_UpperArm  34.4968 7.58023 13.3309
R_Forearm  5.67771 -42.0678 24.2793
R_Hand  -0.904592 10.558 -18.5844
L_Clavicle  -0.600446 18.7875 -2.56873
L_UpperArm  -7.21338 6.46922 20.3445
L_Forearm  -2.20772 28.7296 36.0239
L_Hand  -0.010539 -2.33552 -0.630595
L_Thigh  -2.1919 -6.60717 6.23574
L_Calf  6.88518 -2.43266 17.9446
L_Foot  2.3377 10.5758 -0.858927
L_Toe0  0.50507 0.0369805 -6.13614
R_Thigh  6.60725 0.203136 -32.3946
R_Calf  -1.34683 5.76738 18.2217
R_Foot  2.23034 8.17341 3.86071
R_Toe0  -2.39435 1.30211 6.99276
232
root  -0.413971 31.1293 24.1574 -79.1581 -5.26635 83.0497
Spine  4.58523 4.07445 -7.43763
Spine1  3.42687 -9.89098 9.0515
Neck  3.97569e-016 0 -2.38542e-015
Head  -6.77836 -1.82503 12.9813
R_Clavicle  0.308395 -14.9146 0.451422
R_UpperArm  34.0549 5.00262 15.2565
R_Forearm  7.93095 -42.046 23.8807
R_Hand  -0.88175 9.77806 -18.3158
L_Clavicle  -0.574002 18.1938 -2.83274
L_UpperArm  -6.05703 5.6838 17.522
L_Forearm  -4.58943 26.3971 34.5283
L_Hand  -0.038668 -2.51127 -1.72757
L_Thigh  -2.95506 -8.44319 5.57199
L_Calf  6.64356 -1.9707 14.6429
L_Foot  3.47057 10.1742 3.34646
L_Toe0  0.505073 0.0369719 -6.13614
R_Thigh  8.27547 -2.80237 -28.1968
R_Calf  -3.44344 2.36763 7.33612
R_Foot  2.58275 8.10636 -4.41792
R_Toe0  0.489102 0.2714 10.6187
233
root  -0.698972 30.9009 23.1871 -78.7065 -5.05668 81.6129
Spine  3.81393 0.443012 -7.28895
Spine1  2.88638 -7.87552 9.87806
Neck  3.97569e-016 0 -2.38542e-015
Head  -4.03406 -1.82388 12.4718
R_Clavicle  0.308047 -15.9377 0.173278
R_UpperArm  31.8427 2.94725 17.2811
R_Forearm  8.12896 -41.7133 23.051
R_Hand  -0.789718 9.31317 -17.5787
L_Clavicle  -0.564413 18.0282 -2.8094
L_UpperArm  -6.63445 4.47449 14.2532
L_Forearm  -4.94331 24.825 32.3413
L_Hand  -0.0625953 -2.38244 -2.47853
L_Thigh  -2.8408 -10.0755 4.61018
L_Calf  6.42632 -1.59113 11.9546
L_Foot  4.19223 10.0904 5.87094
L_Toe0  0.50508 0.0368594 -6.13614
R_Thigh  9.34392 -5.5656 -23.3279
R_Calf  -4.20881 -0.97148 -3.0368
R_Foot  2.34859 4.75729 -14.3099
R_Toe0  5.99654 -1.95371 4.12462
234
root  -0.946555 30.7851 22.1874 -78.3131 -5.325 81.0408
Spine  3.03282 -1.66757 -7.38946
Spine1  2.26912 -5.88629 11.2587
Neck  3.97569e-016 0 -2.38542e-015
Head  -1.31638 -1.8148 11.3574
R_Clavicle  0.324782 -17.1129 0.0814128
R_UpperArm  29.7005 0.915469 19.4463
R_Forearm  6.78712 -40.7777 22.2753
R_Hand  -0.812005 9.32781 -17.7448
L_Clavicle  -0.573167 18.2488 -2.64053
L_UpperArm  -5.47939 1.92102 10.0419
L_Forearm  -4.75902 23.9276 30.8199
L_Hand  -0.0787957 -2.31244 -2.97542
L_Thigh  -2.32635 -10.6253 3.0613
L_Calf  6.59044 -1.30272 9.89328
L_Foot  4.72327 9.32242 8.44984
L_Toe0  0.505093 0.0366281 -6.13613
R_Thigh  10.1061 -7.45985 -19.109
R_Calf  -3.71225 -3.5281 -11.0381
R_Foot  2.4223 2.92194 -18.822
R_Toe0  7.7763 -1.8282 -9.1906
235
root  -1.15993 30.8998 21.1119 -78.1031 -5.72332 81.3005
Spine  2.26659 -2.34651 -7.86481
Spine1  1.64721 -4.28316 12.2613
Neck  3.97569e-016 0 -2.38542e-015
Head  1.01276 -1.5499 10.6211
R_Clavicle  0.345535 -18.2456 0.0626229
R_UpperArm  29.5644 -1.49389 21.7683
R_Forearm  4.63526 -40.7045 22.2673
R_Hand  -1.03316 9.73126 -19.3586
L_Clavicle  -0.572544 18.3242 -2.42344
L_UpperArm  -2.31045 -0.975943 5.55863
L_Forearm  -4.54053 23.6508 30.3766
L_Hand  -0.0859536 -2.36048 -3.27994
L_Thigh  -1.87644 -10.0565 0.721539
L_Calf  6.88067 -1.24675 9.50353
L_Foot  5.14495 8.47165 10.8294
L_Toe0  0.50511 0.0362629 -6.13612
R_Thigh  10.8232 -8.47375 -15.5356
R_Calf  -2.55074 -5.07342 -15.9894
R_Foot  2.25656 2.69456 -17.0281
R_Toe0  -2.11876 -0.132964 -17.8476
236
root  -1.34342 31.147 20.0184 -78.3337 -5.75174 81.6651
Spine  1.45457 -3.20001 -8.57651
Spine1  1.02372 -2.51208 11.8421
Neck  3.97569e-016 0 -2.38542e-015
Head  3.41983 -1.24563 11.2655
R_Clavicle  0.36784 -19.39 0.0718845
R_UpperArm  31.4893 -3.90199 24.396
R_Forearm  2.14723 -42.1288 23.2359
R_Hand  -1.28043 10.0832 -21.062
L_Clavicle  -0.545721 17.9112 -2.11528
L_UpperArm  0.683724 -2.7119 2.00864
L_Forearm  -4.22264 23.6401 30.3604
L_Hand  -0.0846415 -2.24084 -3.09859
L_Thigh  -1.59569 -9.29294 -1.98483
L_Calf  7.10035 -1.4185 10.8064
L_Foot  5.2691 8.0173 11.7956
L_Toe0  0.505134 0.0357488 -6.1361
R_Thigh  10.861 -9.16373 -11.8338
R_Calf  -1.9766 -5.64514 -17.8642
R_Foot  1.99577 2.85937 -13.6501
R_Toe0  -1.82647 -0.273249 -17.3452
